<svg xmlns="http://www.w3.org/2000/svg" width="18" height="13" viewBox="0 0 18 13">
    <path fill="#006778" fill-rule="nonzero" d="M18 10.833c0 .38-.111.733-.289 1.042l-5.683-6.123 5.622-4.736c.218.334.35.727.35 1.15v8.667zm-9-3.97l7.822-6.59A2.289 2.289 0 0 0 15.75 0H2.25c-.39 0-.752.104-1.072.273L9 6.863zm2.18-.398L9.37 7.992a.575.575 0 0 1-.37.133.575.575 0 0 1-.37-.133L6.819 6.465l-5.756 6.202c.345.208.75.333 1.187.333h13.5c.437 0 .842-.125 1.187-.333L11.18 6.465zM.35 1.015C.132 1.35 0 1.744 0 2.168v8.666c0 .38.11.733.289 1.043L5.972 5.75.35 1.016z"/>
</svg>
