<svg xmlns="http://www.w3.org/2000/svg" width="20" height="20" viewBox="0 0 20 20">
    <path fill="#FFF" fill-rule="nonzero" d="M10 0c5.516 0 10 4.484 10 10s-4.484 10-10 10S0 15.516 0 10 4.484 0 10 0zM8.166 11.01a.42.42 0 0 0-.385.035 8.661 8.661 0 0 1-2.425 1.018l-.029.008c-1.268.4-1.306 1.647-1.323 2.178 0 .024 0 .045-.003.067v.154c.002.267.025.785.149 1.074.029.07.082.129.152.17C4.389 15.766 6.49 17 10.004 17c3.515 0 5.615-1.236 5.703-1.287.067-.04.123-.1.152-.17.117-.286.138-.803.14-1.07v-.154l-.001-.033-.002-.035c-.017-.533-.055-1.78-1.323-2.177l-.03-.009c-1.317-.31-2.412-1.01-2.424-1.017a.416.416 0 0 0-.55.089.218.218 0 0 0-.028.047c-1.243.533-2.397.473-3.463-.18zM10.031 3h-.05l-.106.002c-.345.01-.916.078-1.466.367-.613.32-1.361 1.007-1.434 2.452-.02.191-.208 2.194.917 3.363.508.53 1.2.807 2.057.82h.093l.23-.01c.75-.055 1.365-.328 1.83-.81 1.125-1.169.938-3.172.917-3.363-.073-1.435-.809-2.121-1.417-2.441-.452-.24-.981-.37-1.571-.38z"/>
</svg>
