<svg xmlns="http://www.w3.org/2000/svg" width="16" height="18" viewBox="0 0 16 18">
    <path fill="#006778" fill-rule="nonzero" d="M5.556 9.706L5.57 9.7c1.42.903 2.96.986 4.615.249a.368.368 0 0 1 .04-.066.54.54 0 0 1 .732-.123c.016.01 1.477.98 3.234 1.409l.038.01c1.691.552 1.742 2.278 1.765 3.016l.002.048.002.045v.012c.004.193.008 1.189-.187 1.684a.504.504 0 0 1-.203.235C15.493 16.29 12.692 18 8.006 18S.519 16.293.402 16.218a.484.484 0 0 1-.202-.235c-.19-.46-.202-1.344-.2-1.63l.001-.058v-.011c.004-.03.004-.06.004-.093.023-.735.074-2.46 1.765-3.016l.038-.011c1.765-.429 3.218-1.398 3.234-1.41a.543.543 0 0 1 .514-.048zM7.975 0h.066c.787.015 1.492.194 2.096.526.81.443 1.791 1.394 1.889 3.38.027.265.276 3.038-1.223 4.656-.633.682-1.475 1.062-2.505 1.127l-.242.01h-.124C6.79 9.68 5.867 9.296 5.19 8.562c-1.5-1.618-1.25-4.391-1.224-4.656C4.064 1.905 5.061.954 5.88.511 6.631.1 7.412.013 7.868 0L7.975 0h.066z"/>
</svg>
